<svg width="14" height="14" viewBox="0 0 14 14" fill="none" xmlns="http://www.w3.org/2000/svg">
<path d="M12.8159 10.6925C12.8159 10.9025 12.7692 11.1183 12.67 11.3283C12.5709 11.5383 12.4425 11.7367 12.2734 11.9233C11.9875 12.2383 11.6725 12.4658 11.3167 12.6117C10.9667 12.7575 10.5875 12.8333 10.1792 12.8333C9.58419 12.8333 8.94835 12.6933 8.27752 12.4075C7.60669 12.1217 6.93585 11.7367 6.27085 11.2525C5.60002 10.7625 4.96419 10.22 4.35752 9.61916C3.75669 9.0125 3.21419 8.37666 2.73002 7.71166C2.25169 7.04666 1.86669 6.38166 1.58669 5.7225C1.30669 5.0575 1.16669 4.42166 1.16669 3.815C1.16669 3.41833 1.23669 3.03916 1.37669 2.68916C1.51669 2.33333 1.73835 2.00666 2.04752 1.715C2.42085 1.3475 2.82919 1.16666 3.26085 1.16666C3.42419 1.16666 3.58752 1.20166 3.73335 1.27166C3.88502 1.34166 4.01919 1.44666 4.12419 1.59833L5.47752 3.50583C5.58252 3.65166 5.65835 3.78583 5.71085 3.91416C5.76335 4.03666 5.79252 4.15916 5.79252 4.27C5.79252 4.41 5.75169 4.55 5.67002 4.68416C5.59419 4.81833 5.48335 4.95833 5.34335 5.09833L4.90002 5.55916C4.83585 5.62333 4.80669 5.69916 4.80669 5.7925C4.80669 5.83916 4.81252 5.88 4.82419 5.92666C4.84169 5.97333 4.85919 6.00833 4.87085 6.04333C4.97585 6.23583 5.15669 6.48666 5.41335 6.79C5.67585 7.09333 5.95585 7.4025 6.25919 7.71166C6.57419 8.02083 6.87752 8.30666 7.18669 8.56916C7.49002 8.82583 7.74085 9.00083 7.93919 9.10583C7.96835 9.1175 8.00335 9.135 8.04419 9.1525C8.09085 9.17 8.13752 9.17583 8.19002 9.17583C8.28919 9.17583 8.36502 9.14083 8.42919 9.07666L8.87252 8.63916C9.01835 8.49333 9.15835 8.3825 9.29252 8.3125C9.42669 8.23083 9.56085 8.19 9.70669 8.19C9.81752 8.19 9.93419 8.21333 10.0625 8.26583C10.1909 8.31833 10.325 8.39416 10.4709 8.49333L12.4017 9.86416C12.5534 9.96916 12.6584 10.0917 12.7225 10.2375C12.7809 10.3833 12.8159 10.5292 12.8159 10.6925Z" stroke="white" stroke-opacity="0.5" stroke-width="0.875" stroke-miterlimit="10"/>
</svg>
