<svg width="256" height="128" viewBox="0 0 256 128" fill="none" xmlns="http://www.w3.org/2000/svg">
<g opacity="0.6">
<mask id="mask0_221_3075" style="mask-type:alpha" maskUnits="userSpaceOnUse" x="-9" y="-74" width="205" height="202">
<path d="M107.926 21.044C64.2926 27.5619 81.6047 87.3162 13.6933 127.383L-8.31659 -14.7149L168.107 -73.0867C189.648 -21.7599 197.704 50.0254 194.244 46.6315C189.919 42.3892 151.559 14.526 107.926 21.044Z" fill="#F6F8FC"/>
</mask>
<g mask="url(#mask0_221_3075)">
<mask id="mask1_221_3075" style="mask-type:alpha" maskUnits="userSpaceOnUse" x="-42" y="-33" width="297" height="227">
<path d="M-41.8151 -29.0093L36.8698 193.753L254.455 115.207C244.984 66.1968 225.661 -31.9409 224.14 -32.4075C222.62 -32.8741 46.203 -30.3364 -41.8151 -29.0093Z" fill="url(#paint0_linear_221_3075)"/>
</mask>
<g mask="url(#mask1_221_3075)">
<mask id="mask2_221_3075" style="mask-type:alpha" maskUnits="userSpaceOnUse" x="-18" y="-59" width="273" height="208">
<path d="M25.9743 148.716C7.36449 84.3416 -16.363 2.21835 -17.5354 -0.925903L211.349 -58.4622L254.859 91.1796L25.9743 148.716Z" fill="url(#paint1_linear_221_3075)"/>
</mask>
<g mask="url(#mask2_221_3075)">
<path d="M95.3391 -0.365248C114.573 -4.96006 137.281 14.2747 143.142 34.9825C149.002 55.6902 148.907 84.7255 128.271 89.6553C118.045 92.0983 109.546 108.907 94.4776 101.498C79.1387 93.9549 73.958 65.0402 71.0016 54.5941C65.1411 33.8864 76.1052 4.22956 95.3391 -0.365248Z" fill="#97C7FF"/>
<g filter="url(#filter0_f_221_3075)">
<path d="M95.3819 -0.00301647C117.483 -5.28275 140.556 16.5777 147.061 39.5637C153.567 62.5496 153.765 94.7066 131.664 99.9863C120.712 102.603 111.932 121.743 95.6805 113.405C79.137 104.917 73.2764 72.8473 69.9948 61.252C63.4895 38.2661 73.2809 5.27671 95.3819 -0.00301647Z" fill="#97C7FF"/>
</g>
<g filter="url(#filter1_f_221_3075)">
<path d="M97.0768 3.30651C104.317 -8.11897 148.876 16.9115 155.051 38.7276C161.225 60.5437 159.451 91.5329 133.273 97.7866C120.3 100.886 109.413 121.832 90.9256 114.649C72.1065 107.338 66.7309 74.8863 63.6163 63.8811C57.4421 42.065 79.2616 -4.1576 97.0768 3.30651Z" fill="#97C7FF"/>
</g>
<g filter="url(#filter2_f_221_3075)">
<path d="M102.028 11.3573C132.019 9.6478 163.309 31.0167 170.209 55.3963C177.109 79.7758 170.08 109.592 142.352 116.216C128.611 119.499 118.468 150.29 98.7071 142.049C78.5914 133.66 72.9597 99.5068 69.4792 87.2085C62.5795 62.829 67.2851 13.3376 102.028 11.3573Z" fill="#97C7FF"/>
</g>
<g filter="url(#filter3_f_221_3075)">
<path d="M117.439 8.23215C139.758 14.0945 191.918 34.9524 199.025 60.0635C206.132 85.1745 135.893 119.285 106.038 126.417C91.243 129.951 75.9914 143.826 54.8749 135.521C33.379 127.066 44.5967 90.907 52.5086 59.8773C63.015 18.6722 92.3092 -6.82832 117.439 8.23215Z" fill="#97C7FF"/>
</g>
<g filter="url(#filter4_f_221_3075)">
<path d="M100.007 19.5494C130.86 12.1789 205.111 50.7495 212.38 76.4331C219.649 102.117 164.587 126.982 133.734 134.353C118.445 138.005 83.2878 168.32 61.5033 159.869C39.3275 151.267 44.0676 129.169 40.4009 116.213C33.1321 90.5294 69.1543 26.9198 100.007 19.5494Z" fill="#97C7FF"/>
</g>
<g filter="url(#filter5_f_221_3075)">
<path d="M100.007 19.5494C130.86 12.1789 205.111 50.7495 212.38 76.4331C219.649 102.117 164.587 126.982 133.734 134.353C118.445 138.005 83.2878 168.32 61.5033 159.869C39.3275 151.267 44.0676 129.169 40.4009 116.213C33.1321 90.5294 69.1543 26.9198 100.007 19.5494Z" fill="#97C7FF"/>
</g>
<g filter="url(#filter6_f_221_3075)">
<path d="M100.007 19.5494C130.86 12.1789 205.111 50.7495 212.38 76.4331C219.649 102.117 164.587 126.982 133.734 134.353C118.445 138.005 83.2878 168.32 61.5033 159.869C39.3275 151.267 44.0676 129.169 40.4009 116.213C33.1321 90.5294 69.1543 26.9198 100.007 19.5494Z" fill="#97C7FF"/>
</g>
<g filter="url(#filter7_f_221_3075)">
<path d="M100.007 19.5494C130.86 12.1789 205.111 50.7495 212.38 76.4331C219.649 102.117 164.587 126.982 133.734 134.353C118.445 138.005 83.2878 168.32 61.5033 159.869C39.3275 151.267 44.0676 129.169 40.4009 116.213C33.1321 90.5294 69.1543 26.9198 100.007 19.5494Z" fill="#97C7FF"/>
</g>
<g filter="url(#filter8_f_221_3075)">
<path d="M95.9292 -0.132353C122.925 -6.58152 155.745 21.7118 163.014 47.3955C170.283 73.0791 164.035 104.214 137.038 110.663C123.66 113.859 104.486 125.241 84.972 116.248C65.1076 107.094 63.2439 77.4827 59.5771 64.5266C52.3084 38.8429 68.9329 6.31682 95.9292 -0.132353Z" fill="#97C7FF"/>
</g>
<path d="M101.712 0.0260322C119.684 -4.49173 141.495 14.7559 147.502 35.4171C153.51 56.0783 154.118 85.0213 134.836 89.8684C125.281 92.2705 117.694 108.998 103.35 101.563C88.7482 93.9948 83.1826 65.1548 80.1521 54.7323C74.1447 34.071 83.7396 4.5438 101.712 0.0260322Z" fill="#AFC6FF"/>
<g filter="url(#filter9_f_221_3075)">
<path d="M101.76 0.393707C122.411 -4.79749 144.628 17.0687 151.297 40.003C157.965 62.9373 158.925 94.993 138.274 100.184C128.04 102.757 120.246 121.808 104.766 113.443C89.0093 104.928 82.7288 72.9414 79.365 61.3722C72.6966 38.438 81.1088 5.5849 101.76 0.393707Z" fill="#AFC6FF"/>
</g>
<g filter="url(#filter10_f_221_3075)">
<path d="M103.43 3.68559C109.963 -7.68018 152.456 17.4158 158.785 39.1828C165.114 60.9499 164.191 91.8352 139.73 97.984C127.609 101.031 117.876 121.875 100.324 114.656C82.4553 107.307 76.6215 74.94 73.4288 63.9596C67.0999 42.1925 86.5021 -3.81276 103.43 3.68559Z" fill="#AFC6FF"/>
</g>
<g filter="url(#filter11_f_221_3075)">
<path d="M108.277 11.7259C136.431 10.1193 166.362 31.5222 173.435 55.8469C180.507 80.1716 174.616 109.871 148.707 116.384C135.868 119.611 127.072 150.271 108.296 141.993C89.1829 133.565 83.0675 99.5017 79.4997 87.2311C72.4271 62.9064 75.6614 13.5871 108.277 11.7259Z" fill="#AFC6FF"/>
</g>
<g filter="url(#filter12_f_221_3075)">
<path d="M122.693 8.66391C143.817 14.5802 193.355 35.5415 200.64 60.5961C207.925 85.6507 142.712 119.425 114.815 126.437C100.991 129.913 86.9856 143.694 66.9335 135.346C46.5213 126.848 56.1982 90.8402 62.8907 59.9345C71.7778 18.894 98.7053 -6.4305 122.693 8.66391Z" fill="#AFC6FF"/>
</g>
<g filter="url(#filter13_f_221_3075)">
<path d="M106.579 19.8932C135.408 12.6463 206.141 51.3359 213.592 76.9618C221.043 102.588 169.875 127.195 141.046 134.442C126.76 138.034 94.4363 168.138 73.7528 159.643C52.6978 150.996 56.623 128.984 52.8643 116.057C45.4134 90.431 77.7502 27.14 106.579 19.8932Z" fill="#AFC6FF"/>
</g>
<g filter="url(#filter14_f_221_3075)">
<path d="M106.579 19.8932C135.408 12.6463 206.141 51.3359 213.592 76.9618C221.043 102.588 169.875 127.195 141.046 134.442C126.76 138.034 94.4363 168.138 73.7528 159.643C52.6978 150.996 56.623 128.984 52.8643 116.057C45.4134 90.431 77.7502 27.14 106.579 19.8932Z" fill="#AFC6FF"/>
</g>
<g filter="url(#filter15_f_221_3075)">
<path d="M106.579 19.8932C135.408 12.6463 206.141 51.3359 213.592 76.9618C221.043 102.588 169.875 127.195 141.046 134.442C126.76 138.034 94.4363 168.138 73.7528 159.643C52.6978 150.996 56.623 128.984 52.8643 116.057C45.4134 90.431 77.7502 27.14 106.579 19.8932Z" fill="#AFC6FF"/>
</g>
<g filter="url(#filter16_f_221_3075)">
<path d="M106.579 19.8932C135.408 12.6463 206.141 51.3359 213.592 76.9618C221.043 102.588 169.875 127.195 141.046 134.442C126.76 138.034 94.4363 168.138 73.7528 159.643C52.6978 150.996 56.623 128.984 52.8643 116.057C45.4134 90.431 77.7502 27.14 106.579 19.8932Z" fill="#AFC6FF"/>
</g>
<g filter="url(#filter17_f_221_3075)">
<path d="M102.272 0.260125C127.498 -6.0809 159.032 22.2294 166.483 47.8553C173.934 73.4812 168.809 104.497 143.584 110.838C131.083 113.981 113.33 125.264 94.7685 116.237C75.8732 107.046 73.4094 77.5231 69.6507 64.5961C62.1997 38.9702 77.0472 6.60115 102.272 0.260125Z" fill="#AFC6FF"/>
</g>
</g>
</g>
</g>
<mask id="mask3_221_3075" style="mask-type:alpha" maskUnits="userSpaceOnUse" x="-90" y="34" width="221" height="140">
<path d="M2.15449 95.979C44.9344 106.76 51.9586 44.9462 130.06 34.1098L95.674 173.73L-89.6245 159.689C-89.7473 104.026 -69.5485 34.6712 -67.6617 39.1354C-65.3031 44.7157 -40.6254 85.1981 2.15449 95.979Z" fill="#F6F8FC"/>
</mask>
<g mask="url(#mask3_221_3075)">
<mask id="mask4_221_3075" style="mask-type:alpha" maskUnits="userSpaceOnUse" x="-131" y="-66" width="283" height="230">
<path d="M151.064 163.44L93.4189 -65.6697L-130.523 -7.68271C-125.647 41.9958 -115.527 141.504 -114.057 142.11C-112.586 142.716 63.303 156.583 151.064 163.44Z" fill="url(#paint2_linear_221_3075)"/>
</mask>
<g mask="url(#mask4_221_3075)">
<mask id="mask5_221_3075" style="mask-type:alpha" maskUnits="userSpaceOnUse" x="-134" y="-20" width="264" height="190">
<path d="M100.081 -19.8126C112.629 46.0124 128.622 129.985 129.498 133.225L-103.743 169.243L-133.159 16.2061L100.081 -19.8126Z" fill="url(#paint3_linear_221_3075)"/>
</mask>
<g mask="url(#mask5_221_3075)">
<path d="M12.1606 124.213C-6.35742 123.514 -21.9023 98.9261 -21.8803 77.4093C-21.8583 55.8924 -14.3332 27.9382 5.53502 28.6877C15.3807 29.0592 27.3499 15.1267 39.0364 26.2829C50.9329 37.6396 48.1953 66.8838 48.1842 77.738C48.1621 99.2548 30.6786 124.911 12.1606 124.213Z" fill="#3F97FF"/>
<path d="M32.3849 110.591C14.7913 116.411 -8.36884 98.8092 -15.8708 78.6425C-23.3728 58.4758 -26.0959 29.6548 -7.2194 23.4108C2.13481 20.3166 8.47768 3.07871 23.3271 9.4451C38.4433 15.9259 46.1026 44.2817 49.887 54.4548C57.389 74.6215 49.9786 104.771 32.3849 110.591Z" fill="#ABD5ED"/>
<g filter="url(#filter18_f_221_3075)">
<path d="M12.2143 123.852C-9.06411 123.049 -24.2652 95.8339 -24.2408 71.9498C-24.2164 48.0658 -16.1561 17.0252 5.12225 17.8279C15.6667 18.2257 28.4866 2.12175 41.0022 14.4881C53.7426 27.0766 50.8095 59.5421 50.7971 71.5904C50.7727 95.4744 33.4926 124.655 12.2143 123.852Z" fill="#3F97FF"/>
</g>
<g filter="url(#filter19_f_221_3075)">
<path d="M32.3094 110.23C12.0932 116.917 -11.6635 96.734 -19.9908 74.3487C-28.3181 51.9634 -31.6188 20.0636 -11.4026 13.3764C-1.3845 10.0626 4.9962 -9.50722 21.0454 -2.29691C37.3829 5.04293 45.9853 36.4851 50.186 47.7774C58.5133 70.1627 52.5256 103.543 32.3094 110.23Z" fill="#ABD5ED"/>
</g>
<g filter="url(#filter20_f_221_3075)">
<path d="M11.5351 120.216C2.07999 129.297 -31.68 93.2999 -31.6569 70.6314C-31.6337 47.9629 -22.0941 18.5734 3.1094 19.5242C15.599 19.9954 30.7819 2.71289 45.609 14.5611C60.7025 26.6222 57.2342 59.327 57.2225 70.7622C57.1993 93.4307 25.6844 132.157 11.5351 120.216Z" fill="#3F97FF"/>
</g>
<g filter="url(#filter21_f_221_3075)">
<path d="M30.4012 107.065C24.7174 118.878 -19.4971 96.9559 -27.4006 75.7098C-35.3041 54.4637 -36.6417 23.5936 -12.6962 15.6728C-0.830122 11.7477 7.35244 -9.75234 25.3862 -3.83561C43.7439 2.1874 51.9285 34.0409 55.9155 44.7585C63.819 66.0046 47.8323 113.305 30.4012 107.065Z" fill="#ABD5ED"/>
</g>
<g filter="url(#filter22_f_221_3075)">
<path d="M9.1356 111.138C-18.3412 104.792 -41.0768 75.8599 -41.0509 50.5278C-41.025 25.1958 -27.0482 -1.66337 -0.352543 -0.656244C12.8765 -0.157166 29.9108 -27.1248 45.615 -13.917C61.6014 -0.471961 57.928 33.9406 57.9149 46.7194C57.889 72.0515 40.966 118.489 9.1356 111.138Z" fill="#3F97FF"/>
</g>
<g filter="url(#filter23_f_221_3075)">
<path d="M24.9784 99.3945C-2.9831 103.055 -34.3989 83.8981 -43.2311 60.1556C-52.0632 36.4131 -48.3589 6.36244 -22.9958 -2.02725C-10.4272 -6.18476 -3.89612 -37.406 15.4347 -30.5222C35.1128 -23.5148 43.7024 10.0104 48.1578 21.9874C56.99 45.7299 57.3702 95.1537 24.9784 99.3945Z" fill="#ABD5ED"/>
</g>
<g filter="url(#filter24_f_221_3075)">
<path d="M-5.56303 110.048C-24.1827 98.4507 -65.8645 64.4491 -65.8378 38.3569C-65.8111 12.2647 6.25331 -1.88505 34.9976 -0.800646C49.2417 -0.263269 66.547 -9.56855 83.457 4.06325C100.671 17.9399 81.2927 49.7941 66.2092 77.5868C46.1794 114.494 13.2349 131.259 -5.56303 110.048Z" fill="#3F97FF"/>
</g>
<g filter="url(#filter25_f_221_3075)">
<path d="M10.8274 103.507C-10.6719 99.1514 -61.6108 81.8683 -70.708 57.4133C-79.8052 32.9584 -17.2355 -5.4934 10.0739 -14.5269C23.607 -19.0035 36.5669 -33.7717 57.1756 -26.9122C78.1546 -19.9294 71.1362 16.6894 66.7213 48.0017C60.8586 89.5821 35.8547 116.808 10.8274 103.507Z" fill="#ABD5ED"/>
</g>
<g filter="url(#filter26_f_221_3075)">
<path d="M13.0562 103.778C-16.6484 102.658 -73.7087 45.6997 -73.6813 19.0126C-73.654 -7.67456 -17.6409 -16.9604 12.0636 -15.8398C26.7836 -15.2844 66.2476 -35.1264 83.7226 -21.177C101.512 -6.977 91.5763 13.0538 91.5625 26.5162C91.5352 53.2033 42.7607 104.899 13.0562 103.778Z" fill="#3F97FF"/>
</g>
<g filter="url(#filter27_f_221_3075)">
<path d="M26.0752 91.1272C-2.14653 100.463 -75.5193 67.048 -84.824 42.0355C-94.1286 17.0229 -44.8968 -11.26 -16.675 -20.5953C-2.6898 -25.2214 27.3466 -57.6085 48.5958 -50.649C70.2267 -43.5644 67.9214 -21.3241 72.6151 -8.7065C81.9198 16.306 54.297 81.7919 26.0752 91.1272Z" fill="#ABD5ED"/>
</g>
<g filter="url(#filter28_f_221_3075)">
<path d="M13.0562 103.778C-16.6484 102.658 -73.7087 45.6997 -73.6813 19.0126C-73.654 -7.67456 -17.6409 -16.9604 12.0636 -15.8398C26.7836 -15.2844 66.2476 -35.1264 83.7226 -21.177C101.512 -6.977 91.5763 13.0538 91.5625 26.5162C91.5352 53.2033 42.7607 104.899 13.0562 103.778Z" fill="#3F97FF"/>
</g>
<g filter="url(#filter29_f_221_3075)">
<path d="M26.0752 91.1272C-2.14653 100.463 -75.5193 67.048 -84.824 42.0355C-94.1286 17.0229 -44.8968 -11.26 -16.675 -20.5953C-2.6898 -25.2214 27.3466 -57.6085 48.5958 -50.649C70.2267 -43.5644 67.9214 -21.3241 72.6151 -8.7065C81.9198 16.306 54.297 81.7919 26.0752 91.1272Z" fill="#ABD5ED"/>
</g>
<g filter="url(#filter30_f_221_3075)">
<path d="M13.0562 103.778C-16.6484 102.658 -73.7087 45.6997 -73.6813 19.0126C-73.654 -7.67456 -17.6409 -16.9604 12.0636 -15.8398C26.7836 -15.2844 66.2476 -35.1264 83.7226 -21.177C101.512 -6.977 91.5763 13.0538 91.5625 26.5162C91.5352 53.2033 42.7607 104.899 13.0562 103.778Z" fill="#3F97FF"/>
</g>
<g filter="url(#filter31_f_221_3075)">
<path d="M26.0752 91.1272C-2.14653 100.463 -75.5193 67.048 -84.824 42.0355C-94.1286 17.0229 -44.8968 -11.26 -16.675 -20.5953C-2.6898 -25.2214 27.3466 -57.6085 48.5958 -50.649C70.2267 -43.5644 67.9214 -21.3241 72.6151 -8.7065C81.9198 16.306 54.297 81.7919 26.0752 91.1272Z" fill="#ABD5ED"/>
</g>
<g filter="url(#filter32_f_221_3075)">
<path d="M13.0562 103.778C-16.6484 102.658 -73.7087 45.6997 -73.6813 19.0126C-73.654 -7.67456 -17.6409 -16.9604 12.0636 -15.8398C26.7836 -15.2844 66.2476 -35.1264 83.7226 -21.177C101.512 -6.977 91.5763 13.0538 91.5625 26.5162C91.5352 53.2033 42.7607 104.899 13.0562 103.778Z" fill="#3F97FF"/>
</g>
<g filter="url(#filter33_f_221_3075)">
<path d="M26.0752 91.1272C-2.14653 100.463 -75.5193 67.048 -84.824 42.0355C-94.1286 17.0229 -44.8968 -11.26 -16.675 -20.5953C-2.6898 -25.2214 27.3466 -57.6085 48.5958 -50.649C70.2267 -43.5644 67.9214 -21.3241 72.6151 -8.7065C81.9198 16.306 54.297 81.7919 26.0752 91.1272Z" fill="#ABD5ED"/>
</g>
<g filter="url(#filter34_f_221_3075)">
<path d="M11.686 123.826C-14.3055 122.845 -36.6453 86.8335 -36.618 60.1464C-36.5907 33.4592 -22.9804 5.12135 3.01103 6.10191C15.8911 6.58782 36.0946 0.730262 51.3835 14.5972C66.9471 28.7132 61.0404 57.7444 61.0267 71.2068C60.9994 97.8939 37.6774 124.806 11.686 123.826Z" fill="#3F97FF"/>
</g>
<g filter="url(#filter35_f_221_3075)">
<path d="M31.8068 110.392C7.1128 118.561 -26.4075 92.6317 -35.7122 67.6192C-45.0168 42.6066 -42.1728 11.2987 -17.4787 3.13027C-5.24164 -0.917563 11.639 -13.469 30.8112 -5.82242C50.3278 1.9615 54.9436 31.2257 59.6373 43.8433C68.942 68.8559 56.5009 102.224 31.8068 110.392Z" fill="#ABD5ED"/>
</g>
</g>
</g>
</g>
<mask id="mask6_221_3075" style="mask-type:alpha" maskUnits="userSpaceOnUse" x="-117" y="18" width="248" height="168">
<path d="M26.6131 85.9572C13.0573 111.574 -89.7232 77.4685 -116.538 50.6912L-45.9742 185.67L130.45 127.298C112.31 74.8462 69.8266 14.4519 69.4477 19.1159C68.974 24.9459 40.1689 60.3408 26.6131 85.9572Z" fill="#F6F8FC"/>
</mask>
<g mask="url(#mask6_221_3075)">
<mask id="mask7_221_3075" style="mask-type:alpha" maskUnits="userSpaceOnUse" x="-153" y="-70" width="300" height="287">
<path d="M-62.2411 216.44L-152.446 -2.51045L69.5887 -69.4179C95.5144 -25.8515 147.15 61.595 146.288 62.8501C145.425 64.1051 6.90921 165.766 -62.2411 216.44Z" fill="url(#paint4_linear_221_3075)"/>
</mask>
<g mask="url(#mask7_221_3075)">
<mask id="mask8_221_3075" style="mask-type:alpha" maskUnits="userSpaceOnUse" x="-131" y="-52" width="286" height="233">
<path d="M-130.321 38.8132C-101.051 99.6608 -63.7021 177.277 -62.4768 180.404L154.058 90.5684L86.2144 -51.0223L-130.321 38.8132Z" fill="url(#paint5_linear_221_3075)"/>
</mask>
<g mask="url(#mask8_221_3075)">
<path d="M13.4759 119.757C29.886 112.01 33.0425 85.2827 23.5029 67.1605C13.9633 49.0383 -5.19846 28.3923 -22.8051 36.7042C-31.53 40.8232 -48.5007 33.7101 -54.1162 47.6283C-59.8325 61.7964 -44.4223 85.3801 -39.6101 94.5218C-30.0705 112.644 -2.93422 127.504 13.4759 119.757Z" fill="#306AFF"/>
<g filter="url(#filter36_f_221_3075)">
<path d="M13.2663 119.47C32.1225 110.569 33.8062 81.76 23.2172 61.6441C12.6281 41.5282 -8.38246 18.4883 -27.2387 27.3902C-36.5829 31.8015 -55.2824 23.1876 -61.1109 38.4458C-67.0442 53.9782 -50.0323 80.2006 -44.6907 90.3481C-34.1016 110.464 -5.58996 128.372 13.2663 119.47Z" fill="#306AFF"/>
</g>
<g filter="url(#filter37_f_221_3075)">
<path d="M12.272 116.143C24.8261 120.14 39.3807 76.7576 29.3306 57.6655C19.2805 38.5734 -2.33523 17.4966 -24.6698 28.0405C-35.7377 33.2656 -57.092 24.572 -65.2368 40.2873C-73.528 56.2849 -55.927 82.5021 -50.8572 92.1332C-40.807 111.225 4.78025 131.675 12.272 116.143Z" fill="#306AFF"/>
</g>
<g filter="url(#filter38_f_221_3075)">
<path d="M10.422 107.572C32.4221 91.6028 40.1489 58.4354 28.9179 37.1C17.6868 15.7645 -6.81551 -1.46484 -30.4724 9.70335C-42.1955 15.2377 -69.5064 -0.901074 -77.8416 16.2988C-86.3266 33.8078 -67.7849 61.3847 -62.1194 72.1474C-50.8884 93.4829 -15.0638 126.071 10.422 107.572Z" fill="#306AFF"/>
</g>
<g filter="url(#filter39_f_221_3075)">
<path d="M23.4552 101.676C35.3471 85.3072 58.5481 42.2775 47.4232 21.5583C36.2983 0.839097 -34.8444 17.2888 -60.3584 29.1956C-73.0019 35.096 -92.5991 34.3529 -102.081 51.6807C-111.732 69.3199 -80.6689 87.1809 -55.214 103.465C-21.4118 125.09 15.4921 125.751 23.4552 101.676Z" fill="#306AFF"/>
</g>
<g filter="url(#filter40_f_221_3075)">
<path d="M3.96597 103.848C30.3324 91.5439 57.6637 24.3665 46.2851 3.17487C34.9066 -18.0167 -19.6616 -3.87055 -46.028 8.43397C-59.0939 14.5314 -103.198 13.932 -113.055 31.7293C-123.089 49.8463 -105.589 61.9424 -99.849 72.6326C-88.4704 93.8242 -22.4005 116.153 3.96597 103.848Z" fill="#306AFF"/>
</g>
<g filter="url(#filter41_f_221_3075)">
<path d="M3.96597 103.848C30.3324 91.5439 57.6637 24.3665 46.2851 3.17487C34.9066 -18.0167 -19.6616 -3.87055 -46.028 8.43397C-59.0939 14.5314 -103.198 13.932 -113.055 31.7293C-123.089 49.8463 -105.589 61.9424 -99.849 72.6326C-88.4704 93.8242 -22.4005 116.153 3.96597 103.848Z" fill="#306AFF"/>
</g>
<g filter="url(#filter42_f_221_3075)">
<path d="M3.96597 103.848C30.3324 91.5439 57.6637 24.3665 46.2851 3.17487C34.9066 -18.0167 -19.6616 -3.87055 -46.028 8.43397C-59.0939 14.5314 -103.198 13.932 -113.055 31.7293C-123.089 49.8463 -105.589 61.9424 -99.849 72.6326C-88.4704 93.8242 -22.4005 116.153 3.96597 103.848Z" fill="#306AFF"/>
</g>
<g filter="url(#filter43_f_221_3075)">
<path d="M3.96597 103.848C30.3324 91.5439 57.6637 24.3665 46.2851 3.17487C34.9066 -18.0167 -19.6616 -3.87055 -46.028 8.43397C-59.0939 14.5314 -103.198 13.932 -113.055 31.7293C-123.089 49.8463 -105.589 61.9424 -99.849 72.6326C-88.4704 93.8242 -22.4005 116.153 3.96597 103.848Z" fill="#306AFF"/>
</g>
<g filter="url(#filter44_f_221_3075)">
<path d="M13.6422 118.991C36.6172 107.953 39.8899 66.2387 27.3641 41.7944C14.8384 17.35 -10.7073 -3.30838 -33.6823 7.72923C-45.0675 13.1989 -66.0271 15.7125 -73.3162 34.3837C-80.7362 53.3903 -61.8114 77.6892 -55.4928 90.0201C-42.967 114.464 -9.33281 130.028 13.6422 118.991Z" fill="#306AFF"/>
</g>
<path d="M10.2912 121.121C28.0984 116.498 35.9171 91.4169 29.5041 72.4159C23.0911 53.4149 7.46677 30.351 -11.6389 35.311C-21.1067 37.7689 -36.8892 28.0517 -44.9442 40.434C-53.1439 53.0387 -41.7937 78.2777 -38.5587 87.8628C-32.1457 106.864 -7.51608 125.744 10.2912 121.121Z" fill="#92BDFF"/>
<g filter="url(#filter45_f_221_3075)">
<path d="M10.1243 120.804C30.5859 115.491 37.2897 88.164 30.1712 67.0726C23.0527 45.9813 5.99087 20.3069 -14.4708 25.619C-24.6105 28.2513 -41.8658 16.8 -50.3678 30.4305C-59.0225 44.3059 -46.5253 72.348 -42.9343 82.9875C-35.8158 104.079 -10.3374 126.116 10.1243 120.804Z" fill="#92BDFF"/>
</g>
<g filter="url(#filter46_f_221_3075)">
<path d="M9.70952 117.449C21.605 123.424 43.7548 84.3253 36.9986 64.3074C30.2423 44.2894 12.2319 20.3934 -12.0043 26.6853C-24.0145 29.8033 -43.9185 17.8222 -54.8232 31.4951C-65.9237 45.4136 -52.8347 73.5514 -49.4266 83.6494C-42.6703 103.667 -0.508181 131.057 9.70952 117.449Z" fill="#92BDFF"/>
</g>
<g filter="url(#filter47_f_221_3075)">
<path d="M9.34639 108.912C34.1914 97.3623 47.715 66.8888 40.1649 44.5187C32.6148 22.1487 11.0394 1.44764 -14.6316 8.1121C-27.3529 11.4147 -51.935 -8.72079 -63.2891 6.34274C-74.8472 21.6769 -61.0514 51.2787 -57.2427 62.5633C-49.6926 84.9334 -19.4352 122.291 9.34639 108.912Z" fill="#92BDFF"/>
</g>
<g filter="url(#filter48_f_221_3075)">
<path d="M23.444 105.489C38.2206 91.8295 68.9809 54.5456 61.43 32.7844C53.8791 11.0232 -20.3375 14.6389 -47.9998 21.6941C-61.7078 25.1903 -81.2336 21.1304 -93.7596 36.1207C-106.511 51.3804 -78.4646 73.8077 -55.7693 93.7658C-25.6317 120.269 11.2663 127.206 23.444 105.489Z" fill="#92BDFF"/>
</g>
<g filter="url(#filter49_f_221_3075)">
<path d="M3.5208 104.238C32.1072 96.9472 71.2138 37.2215 63.4907 14.9641C55.7676 -7.29324 -1.42452 -3.05442 -30.0109 4.23643C-44.1768 7.84941 -88.307 -0.259094 -101.291 15.1171C-114.509 30.7696 -99.0628 45.354 -95.1669 56.5817C-87.4438 78.8391 -25.0656 111.529 3.5208 104.238Z" fill="#92BDFF"/>
</g>
<g filter="url(#filter50_f_221_3075)">
<path d="M3.5208 104.238C32.1072 96.9472 71.2138 37.2215 63.4907 14.9641C55.7676 -7.29324 -1.42452 -3.05442 -30.0109 4.23643C-44.1768 7.84941 -88.307 -0.259094 -101.291 15.1171C-114.509 30.7696 -99.0628 45.354 -95.1669 56.5817C-87.4438 78.8391 -25.0656 111.529 3.5208 104.238Z" fill="#92BDFF"/>
</g>
<g filter="url(#filter51_f_221_3075)">
<path d="M3.5208 104.238C32.1072 96.9472 71.2138 37.2215 63.4907 14.9641C55.7676 -7.29324 -1.42452 -3.05442 -30.0109 4.23643C-44.1768 7.84941 -88.307 -0.259094 -101.291 15.1171C-114.509 30.7696 -99.0628 45.354 -95.1669 56.5817C-87.4438 78.8391 -25.0656 111.529 3.5208 104.238Z" fill="#92BDFF"/>
</g>
<g filter="url(#filter52_f_221_3075)">
<path d="M3.5208 104.238C32.1072 96.9472 71.2138 37.2215 63.4907 14.9641C55.7676 -7.29324 -1.42452 -3.05442 -30.0109 4.23643C-44.1768 7.84941 -88.307 -0.259094 -101.291 15.1171C-114.509 30.7696 -99.0628 45.354 -95.1669 56.5817C-87.4438 78.8391 -25.0656 111.529 3.5208 104.238Z" fill="#92BDFF"/>
</g>
<g filter="url(#filter53_f_221_3075)">
<path d="M10.5893 120.411C35.5537 113.755 46.098 74.3281 37.7905 48.7568C29.4831 23.1855 7.45821 -0.980822 -17.5062 5.67495C-29.8772 8.97321 -51.3365 7.80235 -61.8974 24.4549C-72.6481 41.4066 -57.8974 67.9316 -53.7067 80.8311C-45.3993 106.402 -14.375 127.067 10.5893 120.411Z" fill="#92BDFF"/>
</g>
</g>
</g>
</g>
<mask id="mask9_221_3075" style="mask-type:alpha" maskUnits="userSpaceOnUse" x="-112" y="27" width="238" height="146">
<path d="M26.385 85.3548C11.4428 107.345 -86.8691 84.9273 -111.345 64.2669L-51.1685 172.079L125.255 113.708C110.951 71.2852 73.3517 23.6656 72.675 27.5508C71.8291 32.4074 41.3271 63.3643 26.385 85.3548Z" fill="#F6F8FC"/>
</mask>
<g mask="url(#mask9_221_3075)">
<mask id="mask10_221_3075" style="mask-type:alpha" maskUnits="userSpaceOnUse" x="-140" y="-53" width="289" height="245">
<path d="M-65.5461 191.451L-139.429 15.19L82.1763 -52.8422C104.681 -18.2231 149.459 51.2873 148.533 52.376C147.607 53.4646 5.4278 145.546 -65.5461 191.451Z" fill="url(#paint6_linear_221_3075)"/>
</mask>
<g mask="url(#mask10_221_3075)">
<mask id="mask11_221_3075" style="mask-type:alpha" maskUnits="userSpaceOnUse" x="-121" y="-39" width="276" height="201">
<path d="M-120.494 48.1703C-95.8527 96.9155 -64.4062 159.094 -63.4126 161.614L154.316 74.9003L97.2341 -38.5436L-120.494 48.1703Z" fill="url(#paint7_linear_221_3075)"/>
</mask>
<g mask="url(#mask11_221_3075)">
<path d="M16.1011 112.055C35.5064 107.259 44.422 87.2175 37.788 72.8648C31.1541 58.512 14.5929 41.618 -6.22724 46.7634C-16.5446 49.3133 -33.5065 42.8148 -42.4608 52.9915C-51.5761 63.3511 -39.6908 82.2253 -36.3443 89.4655C-29.7103 103.818 -3.30407 116.851 16.1011 112.055Z" fill="#75ACFF"/>
<g filter="url(#filter54_f_221_3075)">
<path d="M15.931 111.819C38.2288 106.309 45.9731 84.5942 38.6092 68.6625C31.2454 52.7307 13.169 33.9023 -9.12886 39.4129C-20.1785 42.1437 -38.7089 34.3951 -48.1698 45.5732C-57.8006 56.9521 -44.7186 77.93 -41.0039 85.9668C-33.6401 101.899 -6.36681 117.33 15.931 111.819Z" fill="#75ACFF"/>
</g>
<g filter="url(#filter55_f_221_3075)">
<path d="M15.5362 109.236C28.3437 113.084 53.0532 81.1712 46.0641 66.0502C39.0751 50.9293 19.9386 33.5484 -6.47245 40.0756C-19.5604 43.3102 -40.9564 35.3276 -53.0256 46.7004C-65.3116 58.2775 -51.589 79.2901 -48.0634 86.9179C-41.0743 102.039 4.21371 120.512 15.5362 109.236Z" fill="#75ACFF"/>
</g>
<g filter="url(#filter56_f_221_3075)">
<path d="M15.2903 102.618C42.4523 91.9594 57.6519 67.3379 49.8416 50.4403C42.0314 33.5426 18.971 18.8877 -9.00361 25.8013C-22.8664 29.2274 -49.1996 15.215 -61.7804 27.7001C-74.5872 40.4094 -60.1226 62.5136 -56.1827 71.0376C-48.3725 87.9353 -16.1754 114.966 15.2903 102.618Z" fill="#75ACFF"/>
</g>
<g filter="url(#filter57_f_221_3075)">
<path d="M37.1827 95.0126C50.6555 81.7247 78.0137 46.8877 68.8937 30.3736C59.7737 13.8595 -12.9491 27.9039 -39.6107 37.7664C-52.8229 42.6538 -72.3454 42.2856 -83.5009 56.3158C-94.8569 70.5982 -65.5248 84.5836 -41.6482 97.3681C-9.94181 114.345 26.8929 114.445 37.1827 95.0126Z" fill="#75ACFF"/>
</g>
<g filter="url(#filter58_f_221_3075)">
<path d="M17.4876 96.9846C45.0399 86.7926 78.8627 32.5094 69.5348 15.6187C60.2069 -1.27192 4.27877 10.7286 -23.2735 20.9206C-36.9271 25.9713 -80.9669 26.0044 -92.5433 40.4161C-104.328 55.0868 -87.9995 64.5995 -83.294 73.12C-73.9661 90.0107 -10.0647 107.177 17.4876 96.9846Z" fill="#75ACFF"/>
</g>
<g filter="url(#filter59_f_221_3075)">
<path d="M17.4876 96.9846C45.0399 86.7926 78.8627 32.5094 69.5348 15.6187C60.2069 -1.27192 4.27877 10.7286 -23.2735 20.9206C-36.9271 25.9713 -80.9669 26.0044 -92.5433 40.4161C-104.328 55.0868 -87.9995 64.5995 -83.294 73.12C-73.9661 90.0107 -10.0647 107.177 17.4876 96.9846Z" fill="#75ACFF"/>
</g>
<g filter="url(#filter60_f_221_3075)">
<path d="M17.4876 96.9846C45.0399 86.7926 78.8627 32.5094 69.5348 15.6187C60.2069 -1.27192 4.27877 10.7286 -23.2735 20.9206C-36.9271 25.9713 -80.9669 26.0044 -92.5433 40.4161C-104.328 55.0868 -87.9995 64.5995 -83.294 73.12C-73.9661 90.0107 -10.0647 107.177 17.4876 96.9846Z" fill="#75ACFF"/>
</g>
<g filter="url(#filter61_f_221_3075)">
<path d="M17.4876 96.9846C45.0399 86.7926 78.8627 32.5094 69.5348 15.6187C60.2069 -1.27192 4.27877 10.7286 -23.2735 20.9206C-36.9271 25.9713 -80.9669 26.0044 -92.5433 40.4161C-104.328 55.0868 -87.9995 64.5995 -83.294 73.12C-73.9661 90.0107 -10.0647 107.177 17.4876 96.9846Z" fill="#75ACFF"/>
</g>
<g filter="url(#filter62_f_221_3075)">
<path d="M25.4995 107.752C49.4951 98.1952 60.7687 71.3181 53.6476 57.1656C46.5265 43.0132 26.2902 32.707 2.29456 42.2637C-9.59646 46.9995 -30.0087 50.9151 -40.59 63.5893C-51.3615 76.4911 -38.1302 89.8434 -34.538 96.9827C-27.4168 111.135 1.50382 117.309 25.4995 107.752Z" fill="#75ACFF"/>
</g>
</g>
</g>
</g>
<g filter="url(#filter63_f_221_3075)">
<path d="M47.202 92.593C58.3081 75.3714 55.0607 56.5414 60.9274 43.7438C66.7941 30.9462 74.0366 20.7724 84.0734 16.6131" stroke="url(#paint8_linear_221_3075)" stroke-width="9.50122"/>
</g>
</g>
<defs>
<filter id="filter0_f_221_3075" x="67.5705" y="-1.24292" width="83.7629" height="117.18" filterUnits="userSpaceOnUse" color-interpolation-filters="sRGB">
<feFlood flood-opacity="0" result="BackgroundImageFix"/>
<feBlend mode="normal" in="SourceGraphic" in2="BackgroundImageFix" result="shape"/>
<feGaussianBlur stdDeviation="0.221899" result="effect1_foregroundBlur_221_3075"/>
</filter>
<filter id="filter1_f_221_3075" x="60.9941" y="-1.10874" width="98.5766" height="118.802" filterUnits="userSpaceOnUse" color-interpolation-filters="sRGB">
<feFlood flood-opacity="0" result="BackgroundImageFix"/>
<feBlend mode="normal" in="SourceGraphic" in2="BackgroundImageFix" result="shape"/>
<feGaussianBlur stdDeviation="0.776648" result="effect1_foregroundBlur_221_3075"/>
</filter>
<filter id="filter2_f_221_3075" x="64.5493" y="9.04228" width="110.347" height="136.622" filterUnits="userSpaceOnUse" color-interpolation-filters="sRGB">
<feFlood flood-opacity="0" result="BackgroundImageFix"/>
<feBlend mode="normal" in="SourceGraphic" in2="BackgroundImageFix" result="shape"/>
<feGaussianBlur stdDeviation="1.1095" result="effect1_foregroundBlur_221_3075"/>
</filter>
<filter id="filter3_f_221_3075" x="36.4363" y="-2.12755" width="169.082" height="146.248" filterUnits="userSpaceOnUse" color-interpolation-filters="sRGB">
<feFlood flood-opacity="0" result="BackgroundImageFix"/>
<feBlend mode="normal" in="SourceGraphic" in2="BackgroundImageFix" result="shape"/>
<feGaussianBlur stdDeviation="2.99564" result="effect1_foregroundBlur_221_3075"/>
</filter>
<filter id="filter4_f_221_3075" x="22.639" y="1.81388" width="207.211" height="176.352" filterUnits="userSpaceOnUse" color-interpolation-filters="sRGB">
<feFlood flood-opacity="0" result="BackgroundImageFix"/>
<feBlend mode="normal" in="SourceGraphic" in2="BackgroundImageFix" result="shape"/>
<feGaussianBlur stdDeviation="8.40783" result="effect1_foregroundBlur_221_3075"/>
</filter>
<filter id="filter5_f_221_3075" x="22.639" y="1.81388" width="207.211" height="176.352" filterUnits="userSpaceOnUse" color-interpolation-filters="sRGB">
<feFlood flood-opacity="0" result="BackgroundImageFix"/>
<feBlend mode="normal" in="SourceGraphic" in2="BackgroundImageFix" result="shape"/>
<feGaussianBlur stdDeviation="8.40783" result="effect1_foregroundBlur_221_3075"/>
</filter>
<filter id="filter6_f_221_3075" x="22.639" y="1.81388" width="207.211" height="176.352" filterUnits="userSpaceOnUse" color-interpolation-filters="sRGB">
<feFlood flood-opacity="0" result="BackgroundImageFix"/>
<feBlend mode="normal" in="SourceGraphic" in2="BackgroundImageFix" result="shape"/>
<feGaussianBlur stdDeviation="8.40783" result="effect1_foregroundBlur_221_3075"/>
</filter>
<filter id="filter7_f_221_3075" x="22.639" y="1.81388" width="207.211" height="176.352" filterUnits="userSpaceOnUse" color-interpolation-filters="sRGB">
<feFlood flood-opacity="0" result="BackgroundImageFix"/>
<feBlend mode="normal" in="SourceGraphic" in2="BackgroundImageFix" result="shape"/>
<feGaussianBlur stdDeviation="8.40783" result="effect1_foregroundBlur_221_3075"/>
</filter>
<filter id="filter8_f_221_3075" x="50.9888" y="-7.94145" width="121.708" height="134.459" filterUnits="userSpaceOnUse" color-interpolation-filters="sRGB">
<feFlood flood-opacity="0" result="BackgroundImageFix"/>
<feBlend mode="normal" in="SourceGraphic" in2="BackgroundImageFix" result="shape"/>
<feGaussianBlur stdDeviation="3.43944" result="effect1_foregroundBlur_221_3075"/>
</filter>
<filter id="filter9_f_221_3075" x="76.678" y="-0.821767" width="79.3189" height="116.817" filterUnits="userSpaceOnUse" color-interpolation-filters="sRGB">
<feFlood flood-opacity="0" result="BackgroundImageFix"/>
<feBlend mode="normal" in="SourceGraphic" in2="BackgroundImageFix" result="shape"/>
<feGaussianBlur stdDeviation="0.221899" result="effect1_foregroundBlur_221_3075"/>
</filter>
<filter id="filter10_f_221_3075" x="70.6494" y="-0.698865" width="93.0032" height="118.418" filterUnits="userSpaceOnUse" color-interpolation-filters="sRGB">
<feFlood flood-opacity="0" result="BackgroundImageFix"/>
<feBlend mode="normal" in="SourceGraphic" in2="BackgroundImageFix" result="shape"/>
<feGaussianBlur stdDeviation="0.776648" result="effect1_foregroundBlur_221_3075"/>
</filter>
<filter id="filter11_f_221_3075" x="74.1808" y="9.42188" width="104.237" height="136.203" filterUnits="userSpaceOnUse" color-interpolation-filters="sRGB">
<feFlood flood-opacity="0" result="BackgroundImageFix"/>
<feBlend mode="normal" in="SourceGraphic" in2="BackgroundImageFix" result="shape"/>
<feGaussianBlur stdDeviation="1.1095" result="effect1_foregroundBlur_221_3075"/>
</filter>
<filter id="filter12_f_221_3075" x="48.651" y="-1.73152" width="158.544" height="145.712" filterUnits="userSpaceOnUse" color-interpolation-filters="sRGB">
<feFlood flood-opacity="0" result="BackgroundImageFix"/>
<feBlend mode="normal" in="SourceGraphic" in2="BackgroundImageFix" result="shape"/>
<feGaussianBlur stdDeviation="2.99564" result="effect1_foregroundBlur_221_3075"/>
</filter>
<filter id="filter13_f_221_3075" x="34.9636" y="2.18865" width="196.177" height="175.774" filterUnits="userSpaceOnUse" color-interpolation-filters="sRGB">
<feFlood flood-opacity="0" result="BackgroundImageFix"/>
<feBlend mode="normal" in="SourceGraphic" in2="BackgroundImageFix" result="shape"/>
<feGaussianBlur stdDeviation="8.40783" result="effect1_foregroundBlur_221_3075"/>
</filter>
<filter id="filter14_f_221_3075" x="34.9636" y="2.18865" width="196.177" height="175.774" filterUnits="userSpaceOnUse" color-interpolation-filters="sRGB">
<feFlood flood-opacity="0" result="BackgroundImageFix"/>
<feBlend mode="normal" in="SourceGraphic" in2="BackgroundImageFix" result="shape"/>
<feGaussianBlur stdDeviation="8.40783" result="effect1_foregroundBlur_221_3075"/>
</filter>
<filter id="filter15_f_221_3075" x="34.9636" y="2.18865" width="196.177" height="175.774" filterUnits="userSpaceOnUse" color-interpolation-filters="sRGB">
<feFlood flood-opacity="0" result="BackgroundImageFix"/>
<feBlend mode="normal" in="SourceGraphic" in2="BackgroundImageFix" result="shape"/>
<feGaussianBlur stdDeviation="8.40783" result="effect1_foregroundBlur_221_3075"/>
</filter>
<filter id="filter16_f_221_3075" x="34.9636" y="2.18865" width="196.177" height="175.774" filterUnits="userSpaceOnUse" color-interpolation-filters="sRGB">
<feFlood flood-opacity="0" result="BackgroundImageFix"/>
<feBlend mode="normal" in="SourceGraphic" in2="BackgroundImageFix" result="shape"/>
<feGaussianBlur stdDeviation="8.40783" result="effect1_foregroundBlur_221_3075"/>
</filter>
<filter id="filter17_f_221_3075" x="60.8448" y="-7.51999" width="115.655" height="134.067" filterUnits="userSpaceOnUse" color-interpolation-filters="sRGB">
<feFlood flood-opacity="0" result="BackgroundImageFix"/>
<feBlend mode="normal" in="SourceGraphic" in2="BackgroundImageFix" result="shape"/>
<feGaussianBlur stdDeviation="3.43944" result="effect1_foregroundBlur_221_3075"/>
</filter>
<filter id="filter18_f_221_3075" x="-24.6846" y="9.36544" width="76.2255" height="114.946" filterUnits="userSpaceOnUse" color-interpolation-filters="sRGB">
<feFlood flood-opacity="0" result="BackgroundImageFix"/>
<feBlend mode="normal" in="SourceGraphic" in2="BackgroundImageFix" result="shape"/>
<feGaussianBlur stdDeviation="0.221899" result="effect1_foregroundBlur_221_3075"/>
</filter>
<filter id="filter19_f_221_3075" x="-26.9381" y="-4.32371" width="81.2031" height="116.298" filterUnits="userSpaceOnUse" color-interpolation-filters="sRGB">
<feFlood flood-opacity="0" result="BackgroundImageFix"/>
<feBlend mode="normal" in="SourceGraphic" in2="BackgroundImageFix" result="shape"/>
<feGaussianBlur stdDeviation="0.221899" result="effect1_foregroundBlur_221_3075"/>
</filter>
<filter id="filter20_f_221_3075" x="-33.2102" y="8.84912" width="92.3377" height="115.155" filterUnits="userSpaceOnUse" color-interpolation-filters="sRGB">
<feFlood flood-opacity="0" result="BackgroundImageFix"/>
<feBlend mode="normal" in="SourceGraphic" in2="BackgroundImageFix" result="shape"/>
<feGaussianBlur stdDeviation="0.776648" result="effect1_foregroundBlur_221_3075"/>
</filter>
<filter id="filter21_f_221_3075" x="-34.0949" y="-6.41228" width="93.6404" height="118.348" filterUnits="userSpaceOnUse" color-interpolation-filters="sRGB">
<feFlood flood-opacity="0" result="BackgroundImageFix"/>
<feBlend mode="normal" in="SourceGraphic" in2="BackgroundImageFix" result="shape"/>
<feGaussianBlur stdDeviation="0.776648" result="effect1_foregroundBlur_221_3075"/>
</filter>
<filter id="filter22_f_221_3075" x="-43.2699" y="-19.7815" width="103.777" height="133.917" filterUnits="userSpaceOnUse" color-interpolation-filters="sRGB">
<feFlood flood-opacity="0" result="BackgroundImageFix"/>
<feBlend mode="normal" in="SourceGraphic" in2="BackgroundImageFix" result="shape"/>
<feGaussianBlur stdDeviation="1.1095" result="effect1_foregroundBlur_221_3075"/>
</filter>
<filter id="filter23_f_221_3075" x="-49.7796" y="-33.7286" width="105.282" height="135.792" filterUnits="userSpaceOnUse" color-interpolation-filters="sRGB">
<feFlood flood-opacity="0" result="BackgroundImageFix"/>
<feBlend mode="normal" in="SourceGraphic" in2="BackgroundImageFix" result="shape"/>
<feGaussianBlur stdDeviation="1.1095" result="effect1_foregroundBlur_221_3075"/>
</filter>
<filter id="filter24_f_221_3075" x="-71.8291" y="-9.39617" width="168.028" height="134.753" filterUnits="userSpaceOnUse" color-interpolation-filters="sRGB">
<feFlood flood-opacity="0" result="BackgroundImageFix"/>
<feBlend mode="normal" in="SourceGraphic" in2="BackgroundImageFix" result="shape"/>
<feGaussianBlur stdDeviation="2.99564" result="effect1_foregroundBlur_221_3075"/>
</filter>
<filter id="filter25_f_221_3075" x="-77.5948" y="-34.6921" width="155.081" height="147.591" filterUnits="userSpaceOnUse" color-interpolation-filters="sRGB">
<feFlood flood-opacity="0" result="BackgroundImageFix"/>
<feBlend mode="normal" in="SourceGraphic" in2="BackgroundImageFix" result="shape"/>
<feGaussianBlur stdDeviation="2.99564" result="effect1_foregroundBlur_221_3075"/>
</filter>
<filter id="filter26_f_221_3075" x="-90.497" y="-42.9728" width="201.653" height="163.585" filterUnits="userSpaceOnUse" color-interpolation-filters="sRGB">
<feFlood flood-opacity="0" result="BackgroundImageFix"/>
<feBlend mode="normal" in="SourceGraphic" in2="BackgroundImageFix" result="shape"/>
<feGaussianBlur stdDeviation="8.40783" result="effect1_foregroundBlur_221_3075"/>
</filter>
<filter id="filter27_f_221_3075" x="-102.792" y="-68.4405" width="194.062" height="177.986" filterUnits="userSpaceOnUse" color-interpolation-filters="sRGB">
<feFlood flood-opacity="0" result="BackgroundImageFix"/>
<feBlend mode="normal" in="SourceGraphic" in2="BackgroundImageFix" result="shape"/>
<feGaussianBlur stdDeviation="8.40783" result="effect1_foregroundBlur_221_3075"/>
</filter>
<filter id="filter28_f_221_3075" x="-90.497" y="-42.9728" width="201.653" height="163.585" filterUnits="userSpaceOnUse" color-interpolation-filters="sRGB">
<feFlood flood-opacity="0" result="BackgroundImageFix"/>
<feBlend mode="normal" in="SourceGraphic" in2="BackgroundImageFix" result="shape"/>
<feGaussianBlur stdDeviation="8.40783" result="effect1_foregroundBlur_221_3075"/>
</filter>
<filter id="filter29_f_221_3075" x="-102.792" y="-68.4405" width="194.062" height="177.986" filterUnits="userSpaceOnUse" color-interpolation-filters="sRGB">
<feFlood flood-opacity="0" result="BackgroundImageFix"/>
<feBlend mode="normal" in="SourceGraphic" in2="BackgroundImageFix" result="shape"/>
<feGaussianBlur stdDeviation="8.40783" result="effect1_foregroundBlur_221_3075"/>
</filter>
<filter id="filter30_f_221_3075" x="-90.497" y="-42.9728" width="201.653" height="163.585" filterUnits="userSpaceOnUse" color-interpolation-filters="sRGB">
<feFlood flood-opacity="0" result="BackgroundImageFix"/>
<feBlend mode="normal" in="SourceGraphic" in2="BackgroundImageFix" result="shape"/>
<feGaussianBlur stdDeviation="8.40783" result="effect1_foregroundBlur_221_3075"/>
</filter>
<filter id="filter31_f_221_3075" x="-102.792" y="-68.4405" width="194.062" height="177.986" filterUnits="userSpaceOnUse" color-interpolation-filters="sRGB">
<feFlood flood-opacity="0" result="BackgroundImageFix"/>
<feBlend mode="normal" in="SourceGraphic" in2="BackgroundImageFix" result="shape"/>
<feGaussianBlur stdDeviation="8.40783" result="effect1_foregroundBlur_221_3075"/>
</filter>
<filter id="filter32_f_221_3075" x="-90.497" y="-42.9728" width="201.653" height="163.585" filterUnits="userSpaceOnUse" color-interpolation-filters="sRGB">
<feFlood flood-opacity="0" result="BackgroundImageFix"/>
<feBlend mode="normal" in="SourceGraphic" in2="BackgroundImageFix" result="shape"/>
<feGaussianBlur stdDeviation="8.40783" result="effect1_foregroundBlur_221_3075"/>
</filter>
<filter id="filter33_f_221_3075" x="-102.792" y="-68.4405" width="194.062" height="177.986" filterUnits="userSpaceOnUse" color-interpolation-filters="sRGB">
<feFlood flood-opacity="0" result="BackgroundImageFix"/>
<feBlend mode="normal" in="SourceGraphic" in2="BackgroundImageFix" result="shape"/>
<feGaussianBlur stdDeviation="8.40783" result="effect1_foregroundBlur_221_3075"/>
</filter>
<filter id="filter34_f_221_3075" x="-43.4969" y="-1.59964" width="112.514" height="132.33" filterUnits="userSpaceOnUse" color-interpolation-filters="sRGB">
<feFlood flood-opacity="0" result="BackgroundImageFix"/>
<feBlend mode="normal" in="SourceGraphic" in2="BackgroundImageFix" result="shape"/>
<feGaussianBlur stdDeviation="3.43944" result="effect1_foregroundBlur_221_3075"/>
</filter>
<filter id="filter35_f_221_3075" x="-47.4876" y="-15.1221" width="117.09" height="133.927" filterUnits="userSpaceOnUse" color-interpolation-filters="sRGB">
<feFlood flood-opacity="0" result="BackgroundImageFix"/>
<feBlend mode="normal" in="SourceGraphic" in2="BackgroundImageFix" result="shape"/>
<feGaussianBlur stdDeviation="3.43944" result="effect1_foregroundBlur_221_3075"/>
</filter>
<filter id="filter36_f_221_3075" x="-62.794" y="24.9786" width="92.9573" height="97.2801" filterUnits="userSpaceOnUse" color-interpolation-filters="sRGB">
<feFlood flood-opacity="0" result="BackgroundImageFix"/>
<feBlend mode="normal" in="SourceGraphic" in2="BackgroundImageFix" result="shape"/>
<feGaussianBlur stdDeviation="0.221899" result="effect1_foregroundBlur_221_3075"/>
</filter>
<filter id="filter37_f_221_3075" x="-68.9765" y="23.6692" width="103.215" height="99.5135" filterUnits="userSpaceOnUse" color-interpolation-filters="sRGB">
<feFlood flood-opacity="0" result="BackgroundImageFix"/>
<feBlend mode="normal" in="SourceGraphic" in2="BackgroundImageFix" result="shape"/>
<feGaussianBlur stdDeviation="0.776648" result="effect1_foregroundBlur_221_3075"/>
</filter>
<filter id="filter38_f_221_3075" x="-82.2483" y="3.97727" width="118.504" height="111.287" filterUnits="userSpaceOnUse" color-interpolation-filters="sRGB">
<feFlood flood-opacity="0" result="BackgroundImageFix"/>
<feBlend mode="normal" in="SourceGraphic" in2="BackgroundImageFix" result="shape"/>
<feGaussianBlur stdDeviation="1.1095" result="effect1_foregroundBlur_221_3075"/>
</filter>
<filter id="filter39_f_221_3075" x="-109.874" y="5.68185" width="166.227" height="120.02" filterUnits="userSpaceOnUse" color-interpolation-filters="sRGB">
<feFlood flood-opacity="0" result="BackgroundImageFix"/>
<feBlend mode="normal" in="SourceGraphic" in2="BackgroundImageFix" result="shape"/>
<feGaussianBlur stdDeviation="2.99564" result="effect1_foregroundBlur_221_3075"/>
</filter>
<filter id="filter40_f_221_3075" x="-132.915" y="-24.5341" width="198.667" height="148.711" filterUnits="userSpaceOnUse" color-interpolation-filters="sRGB">
<feFlood flood-opacity="0" result="BackgroundImageFix"/>
<feBlend mode="normal" in="SourceGraphic" in2="BackgroundImageFix" result="shape"/>
<feGaussianBlur stdDeviation="8.40783" result="effect1_foregroundBlur_221_3075"/>
</filter>
<filter id="filter41_f_221_3075" x="-132.915" y="-24.5341" width="198.667" height="148.711" filterUnits="userSpaceOnUse" color-interpolation-filters="sRGB">
<feFlood flood-opacity="0" result="BackgroundImageFix"/>
<feBlend mode="normal" in="SourceGraphic" in2="BackgroundImageFix" result="shape"/>
<feGaussianBlur stdDeviation="8.40783" result="effect1_foregroundBlur_221_3075"/>
</filter>
<filter id="filter42_f_221_3075" x="-132.915" y="-24.5341" width="198.667" height="148.711" filterUnits="userSpaceOnUse" color-interpolation-filters="sRGB">
<feFlood flood-opacity="0" result="BackgroundImageFix"/>
<feBlend mode="normal" in="SourceGraphic" in2="BackgroundImageFix" result="shape"/>
<feGaussianBlur stdDeviation="8.40783" result="effect1_foregroundBlur_221_3075"/>
</filter>
<filter id="filter43_f_221_3075" x="-132.915" y="-24.5341" width="198.667" height="148.711" filterUnits="userSpaceOnUse" color-interpolation-filters="sRGB">
<feFlood flood-opacity="0" result="BackgroundImageFix"/>
<feBlend mode="normal" in="SourceGraphic" in2="BackgroundImageFix" result="shape"/>
<feGaussianBlur stdDeviation="8.40783" result="effect1_foregroundBlur_221_3075"/>
</filter>
<filter id="filter44_f_221_3075" x="-81.8929" y="-2.19984" width="123.357" height="131.682" filterUnits="userSpaceOnUse" color-interpolation-filters="sRGB">
<feFlood flood-opacity="0" result="BackgroundImageFix"/>
<feBlend mode="normal" in="SourceGraphic" in2="BackgroundImageFix" result="shape"/>
<feGaussianBlur stdDeviation="3.43944" result="effect1_foregroundBlur_221_3075"/>
</filter>
<filter id="filter45_f_221_3075" x="-53.8064" y="23.1606" width="87.172" height="98.8887" filterUnits="userSpaceOnUse" color-interpolation-filters="sRGB">
<feFlood flood-opacity="0" result="BackgroundImageFix"/>
<feBlend mode="normal" in="SourceGraphic" in2="BackgroundImageFix" result="shape"/>
<feGaussianBlur stdDeviation="0.221899" result="effect1_foregroundBlur_221_3075"/>
</filter>
<filter id="filter46_f_221_3075" x="-60.7574" y="23.2315" width="100.565" height="99.4201" filterUnits="userSpaceOnUse" color-interpolation-filters="sRGB">
<feFlood flood-opacity="0" result="BackgroundImageFix"/>
<feBlend mode="normal" in="SourceGraphic" in2="BackgroundImageFix" result="shape"/>
<feGaussianBlur stdDeviation="0.776648" result="effect1_foregroundBlur_221_3075"/>
</filter>
<filter id="filter47_f_221_3075" x="-70.0303" y="-1.53812" width="114.503" height="115.489" filterUnits="userSpaceOnUse" color-interpolation-filters="sRGB">
<feFlood flood-opacity="0" result="BackgroundImageFix"/>
<feBlend mode="normal" in="SourceGraphic" in2="BackgroundImageFix" result="shape"/>
<feGaussianBlur stdDeviation="1.1095" result="effect1_foregroundBlur_221_3075"/>
</filter>
<filter id="filter48_f_221_3075" x="-102.945" y="10.2536" width="171.54" height="114.116" filterUnits="userSpaceOnUse" color-interpolation-filters="sRGB">
<feFlood flood-opacity="0" result="BackgroundImageFix"/>
<feBlend mode="normal" in="SourceGraphic" in2="BackgroundImageFix" result="shape"/>
<feGaussianBlur stdDeviation="2.99564" result="effect1_foregroundBlur_221_3075"/>
</filter>
<filter id="filter49_f_221_3075" x="-123.355" y="-18.4337" width="204.652" height="140.526" filterUnits="userSpaceOnUse" color-interpolation-filters="sRGB">
<feFlood flood-opacity="0" result="BackgroundImageFix"/>
<feBlend mode="normal" in="SourceGraphic" in2="BackgroundImageFix" result="shape"/>
<feGaussianBlur stdDeviation="8.40783" result="effect1_foregroundBlur_221_3075"/>
</filter>
<filter id="filter50_f_221_3075" x="-123.355" y="-18.4337" width="204.652" height="140.526" filterUnits="userSpaceOnUse" color-interpolation-filters="sRGB">
<feFlood flood-opacity="0" result="BackgroundImageFix"/>
<feBlend mode="normal" in="SourceGraphic" in2="BackgroundImageFix" result="shape"/>
<feGaussianBlur stdDeviation="8.40783" result="effect1_foregroundBlur_221_3075"/>
</filter>
<filter id="filter51_f_221_3075" x="-123.355" y="-18.4337" width="204.652" height="140.526" filterUnits="userSpaceOnUse" color-interpolation-filters="sRGB">
<feFlood flood-opacity="0" result="BackgroundImageFix"/>
<feBlend mode="normal" in="SourceGraphic" in2="BackgroundImageFix" result="shape"/>
<feGaussianBlur stdDeviation="8.40783" result="effect1_foregroundBlur_221_3075"/>
</filter>
<filter id="filter52_f_221_3075" x="-123.355" y="-18.4337" width="204.652" height="140.526" filterUnits="userSpaceOnUse" color-interpolation-filters="sRGB">
<feFlood flood-opacity="0" result="BackgroundImageFix"/>
<feBlend mode="normal" in="SourceGraphic" in2="BackgroundImageFix" result="shape"/>
<feGaussianBlur stdDeviation="8.40783" result="effect1_foregroundBlur_221_3075"/>
</filter>
<filter id="filter53_f_221_3075" x="-72.6242" y="-2.32211" width="120.089" height="130.872" filterUnits="userSpaceOnUse" color-interpolation-filters="sRGB">
<feFlood flood-opacity="0" result="BackgroundImageFix"/>
<feBlend mode="normal" in="SourceGraphic" in2="BackgroundImageFix" result="shape"/>
<feGaussianBlur stdDeviation="3.43944" result="effect1_foregroundBlur_221_3075"/>
</filter>
<filter id="filter54_f_221_3075" x="-52.0833" y="37.9895" width="93.8363" height="75.4129" filterUnits="userSpaceOnUse" color-interpolation-filters="sRGB">
<feFlood flood-opacity="0" result="BackgroundImageFix"/>
<feBlend mode="normal" in="SourceGraphic" in2="BackgroundImageFix" result="shape"/>
<feGaussianBlur stdDeviation="0.221899" result="effect1_foregroundBlur_221_3075"/>
</filter>
<filter id="filter55_f_221_3075" x="-59.5917" y="37.1105" width="108.431" height="77.1554" filterUnits="userSpaceOnUse" color-interpolation-filters="sRGB">
<feFlood flood-opacity="0" result="BackgroundImageFix"/>
<feBlend mode="normal" in="SourceGraphic" in2="BackgroundImageFix" result="shape"/>
<feGaussianBlur stdDeviation="0.776648" result="effect1_foregroundBlur_221_3075"/>
</filter>
<filter id="filter56_f_221_3075" x="-69.1839" y="20.1957" width="123.29" height="87.7717" filterUnits="userSpaceOnUse" color-interpolation-filters="sRGB">
<feFlood flood-opacity="0" result="BackgroundImageFix"/>
<feBlend mode="normal" in="SourceGraphic" in2="BackgroundImageFix" result="shape"/>
<feGaussianBlur stdDeviation="1.1095" result="effect1_foregroundBlur_221_3075"/>
</filter>
<filter id="filter57_f_221_3075" x="-92.0125" y="16.7677" width="168.721" height="99.0805" filterUnits="userSpaceOnUse" color-interpolation-filters="sRGB">
<feFlood flood-opacity="0" result="BackgroundImageFix"/>
<feBlend mode="normal" in="SourceGraphic" in2="BackgroundImageFix" result="shape"/>
<feGaussianBlur stdDeviation="2.99564" result="effect1_foregroundBlur_221_3075"/>
</filter>
<filter id="filter58_f_221_3075" x="-113.549" y="-9.63845" width="201.481" height="126.496" filterUnits="userSpaceOnUse" color-interpolation-filters="sRGB">
<feFlood flood-opacity="0" result="BackgroundImageFix"/>
<feBlend mode="normal" in="SourceGraphic" in2="BackgroundImageFix" result="shape"/>
<feGaussianBlur stdDeviation="8.40783" result="effect1_foregroundBlur_221_3075"/>
</filter>
<filter id="filter59_f_221_3075" x="-113.549" y="-9.63845" width="201.481" height="126.496" filterUnits="userSpaceOnUse" color-interpolation-filters="sRGB">
<feFlood flood-opacity="0" result="BackgroundImageFix"/>
<feBlend mode="normal" in="SourceGraphic" in2="BackgroundImageFix" result="shape"/>
<feGaussianBlur stdDeviation="8.40783" result="effect1_foregroundBlur_221_3075"/>
</filter>
<filter id="filter60_f_221_3075" x="-113.549" y="-9.63845" width="201.481" height="126.496" filterUnits="userSpaceOnUse" color-interpolation-filters="sRGB">
<feFlood flood-opacity="0" result="BackgroundImageFix"/>
<feBlend mode="normal" in="SourceGraphic" in2="BackgroundImageFix" result="shape"/>
<feGaussianBlur stdDeviation="8.40783" result="effect1_foregroundBlur_221_3075"/>
</filter>
<filter id="filter61_f_221_3075" x="-113.549" y="-9.63845" width="201.481" height="126.496" filterUnits="userSpaceOnUse" color-interpolation-filters="sRGB">
<feFlood flood-opacity="0" result="BackgroundImageFix"/>
<feBlend mode="normal" in="SourceGraphic" in2="BackgroundImageFix" result="shape"/>
<feGaussianBlur stdDeviation="8.40783" result="effect1_foregroundBlur_221_3075"/>
</filter>
<filter id="filter62_f_221_3075" x="-51.6101" y="31.6727" width="114.247" height="87.5587" filterUnits="userSpaceOnUse" color-interpolation-filters="sRGB">
<feFlood flood-opacity="0" result="BackgroundImageFix"/>
<feBlend mode="normal" in="SourceGraphic" in2="BackgroundImageFix" result="shape"/>
<feGaussianBlur stdDeviation="3.43944" result="effect1_foregroundBlur_221_3075"/>
</filter>
<filter id="filter63_f_221_3075" x="35.3775" y="4.39234" width="58.3466" height="98.6074" filterUnits="userSpaceOnUse" color-interpolation-filters="sRGB">
<feFlood flood-opacity="0" result="BackgroundImageFix"/>
<feBlend mode="normal" in="SourceGraphic" in2="BackgroundImageFix" result="shape"/>
<feGaussianBlur stdDeviation="3.91604" result="effect1_foregroundBlur_221_3075"/>
</filter>
<linearGradient id="paint0_linear_221_3075" x1="15.4761" y1="83.115" x2="152.572" y2="71.0849" gradientUnits="userSpaceOnUse">
<stop stop-color="#C4C4C4" stop-opacity="0"/>
<stop offset="0.404205" stop-color="#C4C4C4"/>
<stop offset="0.601813" stop-color="#C4C4C4"/>
<stop offset="1" stop-color="#C4C4C4" stop-opacity="0"/>
</linearGradient>
<linearGradient id="paint1_linear_221_3075" x1="91.5486" y1="2.08062" x2="133.879" y2="123.752" gradientUnits="userSpaceOnUse">
<stop stop-color="#C4C4C4"/>
<stop offset="1" stop-color="#C4C4C4" stop-opacity="0"/>
</linearGradient>
<linearGradient id="paint2_linear_221_3075" x1="104.439" y1="46.4775" x2="-33.1814" y2="45.7161" gradientUnits="userSpaceOnUse">
<stop stop-color="#C4C4C4" stop-opacity="0"/>
<stop offset="0.404205" stop-color="#C4C4C4"/>
<stop offset="0.601813" stop-color="#C4C4C4"/>
<stop offset="1" stop-color="#C4C4C4" stop-opacity="0"/>
</linearGradient>
<linearGradient id="paint3_linear_221_3075" x1="21.1648" y1="120.095" x2="-9.67583" y2="-4.9835" gradientUnits="userSpaceOnUse">
<stop stop-color="#C4C4C4"/>
<stop offset="1" stop-color="#C4C4C4" stop-opacity="0"/>
</linearGradient>
<linearGradient id="paint4_linear_221_3075" x1="-110.918" y1="76.906" x2="70.9088" y2="-22.8961" gradientUnits="userSpaceOnUse">
<stop stop-color="#C4C4C4" stop-opacity="0"/>
<stop offset="0.430547" stop-color="#C4C4C4"/>
<stop offset="0.498519" stop-color="#C4C4C4"/>
<stop offset="1" stop-color="#C4C4C4" stop-opacity="0"/>
</linearGradient>
<linearGradient id="paint5_linear_221_3075" x1="20.0663" y1="113.995" x2="-18.4743" y2="-8.74045" gradientUnits="userSpaceOnUse">
<stop stop-color="#C4C4C4"/>
<stop offset="1" stop-color="#C4C4C4" stop-opacity="0"/>
</linearGradient>
<linearGradient id="paint6_linear_221_3075" x1="-56.2804" y1="64.9568" x2="75.2033" y2="-21.4602" gradientUnits="userSpaceOnUse">
<stop stop-color="#C4C4C4" stop-opacity="0"/>
<stop offset="0.355128" stop-color="#C4C4C4"/>
<stop offset="0.697837" stop-color="#C4C4C4"/>
<stop offset="1" stop-color="#C4C4C4" stop-opacity="0"/>
</linearGradient>
<linearGradient id="paint7_linear_221_3075" x1="21.6956" y1="101.915" x2="-9.69263" y2="2.97744" gradientUnits="userSpaceOnUse">
<stop stop-color="#C4C4C4"/>
<stop offset="1" stop-color="#C4C4C4" stop-opacity="0"/>
</linearGradient>
<linearGradient id="paint8_linear_221_3075" x1="65.017" y1="16.9271" x2="66.2583" y2="92.2791" gradientUnits="userSpaceOnUse">
<stop stop-color="#97E6FF"/>
<stop offset="1" stop-color="#ABC5ED"/>
</linearGradient>
</defs>
</svg>
