<svg width="39" height="39" viewBox="0 0 39 39" fill="none" xmlns="http://www.w3.org/2000/svg">
<path opacity="0.4" d="M34.191 11.6837L19.501 20.1825L4.811 11.6837C5.461 10.4812 6.4035 9.425 7.45975 8.84L16.1373 4.03C17.9898 2.99 21.0123 2.99 22.8648 4.03L31.5423 8.84C32.5985 9.425 33.541 10.4812 34.191 11.6837Z" fill="white"/>
<path opacity="0.6" d="M19.501 20.1825V35.75C18.2823 35.75 17.0635 35.49 16.1373 34.97L7.45977 30.16C5.49352 29.0712 3.88477 26.3412 3.88477 24.0987V14.9012C3.88477 13.8612 4.24227 12.7237 4.81102 11.6837L19.501 20.1825Z" fill="white"/>
<path d="M35.1173 14.9012V24.0987C35.1173 26.3412 33.5085 29.0712 31.5423 30.16L22.8648 34.97C21.9385 35.49 20.7198 35.75 19.501 35.75V20.1825L34.191 11.6837C34.7598 12.7237 35.1173 13.8612 35.1173 14.9012Z" fill="white"/>
<path d="M9.01318 25.0462L7.79478 27.2668C7.7285 27.3945 7.63407 27.4215 7.5115 27.3478L6.52532 26.7553C6.41389 26.6883 6.38861 26.6103 6.44946 26.5212L11.2859 18.1611C11.3356 18.0653 11.4051 18.0442 11.4942 18.0978L11.8118 18.2886C12.1349 18.4827 12.3748 18.7106 12.5314 18.9722C12.688 19.2339 12.8042 19.6108 12.88 20.1031L14.6397 31.4424C14.668 31.5851 14.6208 31.6196 14.4983 31.5459L13.5121 30.9534C13.4118 30.8931 13.3477 30.8336 13.3197 30.7749C13.2917 30.7162 13.2664 30.6382 13.2438 30.5409L12.774 27.3059L9.01318 25.0462ZM9.59888 23.9741L12.5574 25.7518L11.7265 20.1849L9.59888 23.9741Z" fill="#4771ED"/>
<path d="M30.4689 25.0462L31.6873 27.2668C31.7536 27.3945 31.848 27.4215 31.9706 27.3478L32.9568 26.7553C33.0682 26.6883 33.0935 26.6103 33.0327 26.5212L28.1962 18.1611C28.1465 18.0653 28.0771 18.0442 27.9879 18.0978L27.6703 18.2886C27.3472 18.4827 27.1073 18.7106 26.9507 18.9722C26.7942 19.2339 26.678 19.6108 26.6021 20.1031L24.8424 31.4424C24.8141 31.5851 24.8613 31.6196 24.9838 31.5459L25.97 30.9534C26.0703 30.8931 26.1345 30.8336 26.1625 30.7749C26.1905 30.7162 26.2157 30.6382 26.2383 30.5409L26.7081 27.3059L30.4689 25.0462ZM29.8832 23.9741L26.9247 25.7518L27.7556 20.1849L29.8832 23.9741Z" fill="#4771ED"/>
</svg>
